<svg xmlns="http://www.w3.org/2000/svg" width="62.726" height="62.726" viewBox="0 0 62.726 62.726">
  <g id="sun" transform="translate(-6.5 -6.6)">
    <g id="Grupo_11866" data-name="Grupo 11866" transform="translate(6.5 6.6)">
      <path id="Trazado_35" data-name="Trazado 35" d="M49,61.6A12.5,12.5,0,1,0,36.5,49.1,12.508,12.508,0,0,0,49,61.6Zm0-21.384A8.884,8.884,0,1,1,40.116,49.1,8.879,8.879,0,0,1,49,40.216Z" transform="translate(-17.637 -17.737)" fill="#231f20"/>
      <path id="Trazado_36" data-name="Trazado 36" d="M64.834,15.793V8.817a2.217,2.217,0,1,0-4.434,0v6.976a2.217,2.217,0,1,0,4.434,0Z" transform="translate(-31.254 -6.6)" fill="#231f20"/>
      <path id="Trazado_37" data-name="Trazado 37" d="M60.4,103.717v6.976a2.217,2.217,0,1,0,4.434,0v-6.976a2.217,2.217,0,1,0-4.434,0Z" transform="translate(-31.254 -50.184)" fill="#231f20"/>
      <path id="Trazado_38" data-name="Trazado 38" d="M93.185,31.106l4.921-4.921a2.218,2.218,0,1,0-3.136-3.136L90.049,27.97a2.219,2.219,0,0,0,0,3.136,2.219,2.219,0,0,0,3.136,0Z" transform="translate(-44.573 -13.856)" fill="#231f20"/>
      <path id="Trazado_39" data-name="Trazado 39" d="M22.949,98.206a2.166,2.166,0,0,0,1.568.649,2.258,2.258,0,0,0,1.568-.649l4.921-4.921a2.218,2.218,0,0,0-3.136-3.136L22.949,95.07A2.219,2.219,0,0,0,22.949,98.206Z" transform="translate(-13.756 -44.673)" fill="#231f20"/>
      <path id="Trazado_40" data-name="Trazado 40" d="M112.81,62.717a2.193,2.193,0,0,0-2.217-2.217h-6.976a2.217,2.217,0,0,0,0,4.434h6.976A2.227,2.227,0,0,0,112.81,62.717Z" transform="translate(-50.084 -31.354)" fill="#231f20"/>
      <path id="Trazado_41" data-name="Trazado 41" d="M8.717,64.934h6.976a2.217,2.217,0,1,0,0-4.434H8.717A2.193,2.193,0,0,0,6.5,62.717,2.227,2.227,0,0,0,8.717,64.934Z" transform="translate(-6.5 -31.354)" fill="#231f20"/>
      <path id="Trazado_42" data-name="Trazado 42" d="M96.538,98.855a2.258,2.258,0,0,0,1.568-.649,2.219,2.219,0,0,0,0-3.136l-4.921-4.921a2.218,2.218,0,0,0-3.136,3.136l4.921,4.921A2.258,2.258,0,0,0,96.538,98.855Z" transform="translate(-44.573 -44.673)" fill="#231f20"/>
      <path id="Trazado_43" data-name="Trazado 43" d="M31.006,31.106a2.219,2.219,0,0,0,0-3.136l-4.921-4.921a2.218,2.218,0,1,0-3.136,3.136l4.921,4.921a2.219,2.219,0,0,0,3.136,0Z" transform="translate(-13.756 -13.856)" fill="#231f20"/>
    </g>
  </g>
</svg>
